<?xml version="1.0" encoding="UTF-8" standalone="no"?>
<!-- Created with Inkscape (http://www.inkscape.org/) -->

<svg
   xmlns:dc="http://purl.org/dc/elements/1.1/"
   xmlns:cc="http://creativecommons.org/ns#"
   xmlns:rdf="http://www.w3.org/1999/02/22-rdf-syntax-ns#"
   xmlns:svg="http://www.w3.org/2000/svg"
   xmlns="http://www.w3.org/2000/svg"
   xmlns:sodipodi="http://sodipodi.sourceforge.net/DTD/sodipodi-0.dtd"
   xmlns:inkscape="http://www.inkscape.org/namespaces/inkscape"
   width="96"
   height="96"
   id="svg6718"
   version="1.1"
   inkscape:version="0.48.2 r9819"
   sodipodi:docname="icon.svg">
  <defs
     id="defs6720" />
  <sodipodi:namedview
     id="base"
     pagecolor="#ffffff"
     bordercolor="#666666"
     borderopacity="1.0"
     inkscape:pageopacity="0.0"
     inkscape:pageshadow="2"
     inkscape:zoom="5.7182569"
     inkscape:cx="53.244983"
     inkscape:cy="55.169062"
     inkscape:document-units="px"
     inkscape:current-layer="layer1"
     showgrid="false"
     inkscape:window-width="1600"
     inkscape:window-height="878"
     inkscape:window-x="-8"
     inkscape:window-y="-8"
     inkscape:window-maximized="1" />
  <metadata
     id="metadata6723">
    <rdf:RDF>
      <cc:Work
         rdf:about="">
        <dc:format>image/svg+xml</dc:format>
        <dc:type
           rdf:resource="http://purl.org/dc/dcmitype/StillImage" />
        <dc:title></dc:title>
      </cc:Work>
    </rdf:RDF>
  </metadata>
  <g
     inkscape:label="Layer 1"
     inkscape:groupmode="layer"
     id="layer1"
     transform="translate(0,-956.36218)">
    <rect
       style="fill:#ffffff;fill-opacity:0.8"
       id="rect6786"
       width="38.415318"
       height="58.060917"
       x="350.6622"
       y="874.70142"
       transform="matrix(0.91580183,0.40163044,-0.32217582,0.94667985,0,0)" />
    <g
       transform="matrix(1.5520212,0,0,1.7424444,1.861144,238.57149)"
       id="Vibrate">
      <g
         id="g5829">
        <path
           style="fill:#333333"
           inkscape:connector-curvature="0"
           d="m 45.677,426.096 -19.646,-7.15 c -0.984,-0.358 -2.082,0.154 -2.44,1.138 l -11.052,30.364 c -0.358,0.984 0.153,2.082 1.138,2.439 l 19.646,7.152 c 0.984,0.357 2.082,-0.154 2.439,-1.139 l 11.053,-30.365 c 0.358,-0.984 -0.154,-2.082 -1.138,-2.439 z m -21.514,28.543 c -1.291,-0.471 -1.957,-1.898 -1.488,-3.189 0.471,-1.291 1.899,-1.957 3.191,-1.488 1.291,0.471 1.957,1.898 1.486,3.191 -0.469,1.29 -1.897,1.956 -3.189,1.486 z m 11.118,-3.403 -17.447,-6.35 8.224,-22.595 17.447,6.351 -8.224,22.594 z"
           id="path5831" />
        <g
           id="g5833">
          <g
             id="g5835">
            <polygon
               style="fill:#333333"
               points="42.176,459.275 42.176,459.275 39.497,458.301 46.649,438.648 49.328,439.625 "
               id="polygon5837" />
          </g>
          <g
             id="g5839">
            <polygon
               style="fill:#333333"
               points="48.276,459.191 48.276,459.191 45.597,458.217 49.498,447.496 52.177,448.473 "
               id="polygon5841" />
          </g>
        </g>
        <g
           id="g5843">
          <g
             id="g5845">
            <polygon
               style="fill:#333333"
               points="12.706,440.264 12.706,440.264 10.026,439.289 17.179,419.64 19.858,420.615 "
               id="polygon5847" />
          </g>
          <g
             id="g5849">
            <polygon
               style="fill:#333333"
               points="9.856,431.418 9.856,431.418 7.177,430.443 11.077,419.725 13.758,420.7 "
               id="polygon5851" />
          </g>
        </g>
      </g>
    </g>
    <text
       xml:space="preserve"
       style="font-size:25px;font-style:normal;font-weight:normal;line-height:80.00000119%;letter-spacing:0px;word-spacing:0px;writing-mode:lr-tb;fill:#333333;fill-opacity:1;stroke:none;font-family:Sans"
       x="430.97238"
       y="902.53101"
       id="text6780"
       sodipodi:linespacing="80.000001%"
       transform="matrix(0.92282232,0.38522586,-0.38522586,0.92282232,0,0)"><tspan
         sodipodi:role="line"
         id="tspan6782"
         x="430.97238"
         y="902.53101"
         style="font-size:25px;font-weight:bold;text-align:center;line-height:80.00000119%;writing-mode:lr-tb;text-anchor:middle;fill:#333333;fill-opacity:1;-inkscape-font-specification:Sans Bold">C</tspan><tspan
         sodipodi:role="line"
         x="430.97238"
         y="922.53101"
         id="tspan6784"
         style="font-size:25px;font-weight:bold;text-align:center;line-height:80.00000119%;writing-mode:lr-tb;text-anchor:middle;fill:#333333;fill-opacity:1;-inkscape-font-specification:Sans Bold">V</tspan></text>
  </g>
</svg>
