<?xml version="1.0" encoding="UTF-8" standalone="no"?>
<!-- Created with Inkscape (http://www.inkscape.org/) -->

<svg
   xmlns:dc="http://purl.org/dc/elements/1.1/"
   xmlns:cc="http://creativecommons.org/ns#"
   xmlns:rdf="http://www.w3.org/1999/02/22-rdf-syntax-ns#"
   xmlns:svg="http://www.w3.org/2000/svg"
   xmlns="http://www.w3.org/2000/svg"
   xmlns:sodipodi="http://sodipodi.sourceforge.net/DTD/sodipodi-0.dtd"
   xmlns:inkscape="http://www.inkscape.org/namespaces/inkscape"
   width="48"
   height="48"
   id="svg5917"
   version="1.1"
   inkscape:version="0.48.2 r9819"
   sodipodi:docname="ic_action_add.svg"
   inkscape:export-filename="C:\Users\stiner\Projects\contact-vibrates\vibrates\res\drawable-hdpi\ic_action_add.png"
   inkscape:export-xdpi="90"
   inkscape:export-ydpi="90">
  <defs
     id="defs5919" />
  <sodipodi:namedview
     id="base"
     pagecolor="#000000"
     bordercolor="#666666"
     borderopacity="1.0"
     inkscape:pageopacity="0"
     inkscape:pageshadow="2"
     inkscape:zoom="1"
     inkscape:cx="-133.8959"
     inkscape:cy="46.752044"
     inkscape:document-units="px"
     inkscape:current-layer="g7619"
     showgrid="false"
     inkscape:window-width="1600"
     inkscape:window-height="878"
     inkscape:window-x="-8"
     inkscape:window-y="-8"
     inkscape:window-maximized="1" />
  <metadata
     id="metadata5922">
    <rdf:RDF>
      <cc:Work
         rdf:about="">
        <dc:format>image/svg+xml</dc:format>
        <dc:type
           rdf:resource="http://purl.org/dc/dcmitype/StillImage" />
        <dc:title />
      </cc:Work>
    </rdf:RDF>
  </metadata>
  <g
     inkscape:label="Layer 1"
     inkscape:groupmode="layer"
     id="layer1"
     transform="translate(0,-1004.3622)">
    <g
       id="g7619"
       transform="matrix(0.66665185,0,0,0.66665185,-32.665407,367.64842)">
      <g
         style="fill:#ffffff;fill-opacity:0.80000001"
         id="User_-_add_1_"
         transform="translate(-183.2455,613.1492)">
        <g
           style="fill:#ffffff;fill-opacity:0.80000001"
           id="g5480">
          <path
             id="path5482"
             d="m 278.226,381.375 c -0.418,0 -0.432,-1.066 -0.432,-1.658 0,-0.729 0.096,-1.131 0.096,-1.131 1.248,0 3.135,-2.082 3.742,-4.002 0.342,-1.082 2.271,-1.278 2.271,-4.144 0,-2.509 -1.109,-1.813 -1.109,-2.002 0,-0.187 0,-2.729 0,-4.224 0,-2.771 -2.475,-8.232 -10.275,-8.232 -7.8,0 -10.273,5.462 -10.273,8.232 0,1.494 0,4.037 0,4.224 0,0.188 -1.111,-0.506 -1.111,2.002 0,2.864 1.93,3.062 2.271,4.144 0.355,1.116 1.141,2.284 1.982,3.069 0.266,0.195 0.531,0.394 0.783,0.605 0.346,0.205 0.68,0.326 0.977,0.326 0,0 0.055,0.233 0.082,0.664 2.451,2.535 3.969,5.98 3.969,9.777 0,2.78 -0.82,5.366 -2.215,7.552 h 3.535 18.227 c 0,0 0,-3.651 0,-6.578 0,-2.285 -5.741,-8.624 -12.52,-8.624 z"
             inkscape:connector-curvature="0"
             style="fill:#ffffff;fill-opacity:0.80000001" />
          <path
             id="path5484"
             d="m 257.345,377.248 c -6.406,0 -11.6,5.19 -11.6,11.598 0,6.408 5.191,11.598 11.6,11.598 6.406,0 11.6,-5.19 11.6,-11.598 0,-6.408 -5.194,-11.598 -11.6,-11.598 z m 6.031,13.106 c 0,0.277 -0.229,0.502 -0.504,0.502 h -3.016 c -0.275,0 -0.502,0.228 -0.502,0.505 v 3.015 c 0,0.275 -0.229,0.503 -0.502,0.503 h -3.018 c -0.275,0 -0.502,-0.228 -0.502,-0.503 v -3.015 c 0,-0.277 -0.227,-0.505 -0.504,-0.505 h -3.014 c -0.275,0 -0.502,-0.225 -0.502,-0.502 v -3.016 c 0,-0.277 0.227,-0.502 0.502,-0.502 h 3.014 c 0.277,0 0.504,-0.228 0.504,-0.503 v -3.017 c 0,-0.273 0.227,-0.503 0.502,-0.503 h 3.018 c 0.273,0 0.502,0.229 0.502,0.503 v 3.017 c 0,0.275 0.227,0.503 0.502,0.503 h 3.016 c 0.275,0 0.504,0.225 0.504,0.502 v 3.016 z"
             inkscape:connector-curvature="0"
             style="fill:#ffffff;fill-opacity:0.80000001" />
        </g>
      </g>
      <path
         inkscape:connector-curvature="0"
         id="path5897"
         d="m 88.05118,1005.8446 c 1.33453,-4.2047 -0.50772,-9.7951 -5.16906,-15.6856 -3.62422,-4.5799 -4.22323,-6.2438 -3.64585,-10.1273 0.94352,-6.346 4.44153,-9.7068 10.10306,-9.7068 5.6959,0 9.15968,3.366 10.12447,9.8388 0.57539,3.8603 0.10719,5.4319 -2.43562,8.1756 -3.7847,4.0838 -4.06487,7.1552 -0.65266,7.1552 3.83502,0 10.47878,6.2425 10.47878,9.8459 0,3.0304 -0.30693,3.1282 -9.81797,3.1282 -9.26391,0 -9.77097,-0.1481 -8.98515,-2.624 z"
         style="fill:#ffffff;fill-opacity:0.80000001" />
      <path
         inkscape:connector-curvature="0"
         id="path5899"
         d="m 66.64466,1009.1278 c -9.37031,-9.9742 5.29047,-24.0197 14.96921,-14.341 4.21313,4.2132 4.21313,10.1763 0,14.3894 -4.31953,4.3196 -10.88569,4.2983 -14.96921,-0.048 l 0,0 z m 10.36932,-2.6053 c 0,-1.0704 0.87575,-1.9461 1.94611,-1.9461 1.08117,0 1.94611,-1.1533 1.94611,-2.5949 0,-1.4415 -0.86494,-2.5948 -1.94611,-2.5948 -1.07036,0 -1.94611,-0.8757 -1.94611,-1.9461 0,-1.0811 -1.15325,-1.9461 -2.59481,-1.9461 -1.44156,0 -2.59481,0.865 -2.59481,1.9461 0,1.0704 -0.87575,1.9461 -1.94611,1.9461 -1.08117,0 -1.94611,1.1533 -1.94611,2.5948 0,1.4416 0.86494,2.5949 1.94611,2.5949 1.07036,0 1.94611,0.8757 1.94611,1.9461 0,1.0811 1.15325,1.9461 2.59481,1.9461 1.44156,0 2.59481,-0.865 2.59481,-1.9461 z"
         style="fill:#ffffff;fill-opacity:0.80000001" />
      <path
         inkscape:connector-curvature="0"
         id="path5913"
         d="m 92.25849,1007.5651 c -3.04219,-0.4829 -3.56786,-1.1861 -3.56786,-4.773 0,-2.5215 -1.85416,-7.2859 -4.62853,-11.8931 -5.22632,-8.6792 -5.29757,-14.5158 -0.22062,-18.0718 9.28719,-6.505 19.68167,5.6273 12.79813,14.9378 -3.54281,4.7919 -3.49472,7.3317 0.1598,8.4399 6.75278,2.0478 12.00496,10.9409 6.48703,10.984 -1.24876,0.01 -3.43813,0.2258 -4.86527,0.4801 -1.42715,0.2544 -4.20035,0.2076 -6.16268,-0.1039 l 0,0 z"
         style="fill:#ffffff;fill-opacity:0.80000001" />
      <path
         inkscape:connector-curvature="0"
         id="path5925-6"
         d="m 70.19043,1010.3572 c -7.35328,-3.0918 -7.35328,-13.6595 0,-16.7513 4.62508,-1.9447 6.83996,-1.4821 11.05067,2.3081 5.15562,4.6407 2.534,12.8595 -4.93321,15.4656 -1.10773,0.3866 -3.86059,-0.073 -6.11746,-1.0224 z m 8.78022,-5.1321 3.04712,-3.2436 -3.04712,-3.2435 c -3.76704,-4.0098 -6.01411,-4.0894 -9.15506,-0.3243 -3.15498,3.7819 -3.11149,4.6059 0.39757,7.5333 3.87306,3.231 5.14216,3.1264 8.75749,-0.7219 z"
         style="fill:#ffffff;fill-opacity:0.80000001" />
      <path
         inkscape:connector-curvature="0"
         id="path5927-7"
         d="m 89.9101,1004.969 c -0.3895,-1.2863 -1.90895,-5.2579 -3.37657,-8.8258 -5.70343,-13.8654 -6.26573,-16.048 -4.99535,-19.3893 2.44957,-6.4429 12.87425,-5.9943 15.63584,0.6728 1.47324,3.5567 1.32858,4.7147 -1.25261,10.0276 l -2.91819,6.0065 3.0386,2.3406 c 11.08024,8.535 11.31354,10.529 1.30036,11.1137 -5.55716,0.3245 -6.84679,-0.013 -7.43208,-1.9461 l 0,0 z"
         style="fill:#ffffff;fill-opacity:0.80000001" />
    </g>
  </g>
</svg>
