<?xml version="1.0" encoding="UTF-8" standalone="no"?>
<!-- Created with Inkscape (http://www.inkscape.org/) -->

<svg
   xmlns:dc="http://purl.org/dc/elements/1.1/"
   xmlns:cc="http://creativecommons.org/ns#"
   xmlns:rdf="http://www.w3.org/1999/02/22-rdf-syntax-ns#"
   xmlns:svg="http://www.w3.org/2000/svg"
   xmlns="http://www.w3.org/2000/svg"
   xmlns:sodipodi="http://sodipodi.sourceforge.net/DTD/sodipodi-0.dtd"
   xmlns:inkscape="http://www.inkscape.org/namespaces/inkscape"
   width="48"
   height="48"
   id="svg5917"
   version="1.1"
   inkscape:version="0.48.2 r9819"
   sodipodi:docname="ic_action_seach.svg"
   inkscape:export-filename="C:\Users\stiner\Projects\contact-vibrates\vibrates\res\drawable-hdpi\ic_action_search.png"
   inkscape:export-xdpi="90"
   inkscape:export-ydpi="90">
  <defs
     id="defs5919" />
  <sodipodi:namedview
     id="base"
     pagecolor="#000000"
     bordercolor="#666666"
     borderopacity="1.0"
     inkscape:pageopacity="0"
     inkscape:pageshadow="2"
     inkscape:zoom="1"
     inkscape:cx="-133.8959"
     inkscape:cy="61.844898"
     inkscape:document-units="px"
     inkscape:current-layer="layer1"
     showgrid="false"
     inkscape:window-width="991"
     inkscape:window-height="425"
     inkscape:window-x="130"
     inkscape:window-y="180"
     inkscape:window-maximized="0" />
  <metadata
     id="metadata5922">
    <rdf:RDF>
      <cc:Work
         rdf:about="">
        <dc:format>image/svg+xml</dc:format>
        <dc:type
           rdf:resource="http://purl.org/dc/dcmitype/StillImage" />
        <dc:title></dc:title>
      </cc:Work>
    </rdf:RDF>
  </metadata>
  <g
     inkscape:label="Layer 1"
     inkscape:groupmode="layer"
     id="layer1"
     transform="translate(0,-1004.3622)">
    <g
       transform="matrix(0.71111901,0,0,0.71111901,-381.31561,672.81283)"
       id="Search"
       style="fill:#ffffff;fill-opacity:0.5">
      <path
         style="fill:#ffffff;fill-opacity:0.5"
         inkscape:connector-curvature="0"
         d="m 591.775,515.452 -10.129,-10.127 c -0.762,-0.762 -1.918,-0.887 -2.822,-0.393 l -2.16,-2.16 c 1.84,-2.613 2.932,-5.791 2.932,-9.223 0,-8.857 -7.207,-16.063 -16.064,-16.063 -8.857,0 -16.063,7.205 -16.063,16.063 0,8.858 7.205,16.064 16.063,16.064 3.418,0 6.582,-1.08 9.188,-2.906 l 2.174,2.176 c -0.467,0.896 -0.336,2.029 0.414,2.781 l 10.129,10.127 c 0.924,0.926 2.439,0.926 3.363,0 l 2.977,-2.975 c 0.922,-0.924 0.922,-2.438 -0.002,-3.364 z m -28.244,-11.787 c -5.584,0 -10.113,-4.529 -10.113,-10.115 0,-5.584 4.529,-10.113 10.113,-10.113 5.586,0 10.115,4.529 10.115,10.113 0,5.586 -4.529,10.115 -10.115,10.115 z"
         id="path5090" />
    </g>
  </g>
</svg>
